<?xml version="1.0" encoding="UTF-8" standalone="no"?>
<!-- Created with Inkscape (http://www.inkscape.org/) -->

<svg
   width="600"
   height="600"
   viewBox="0 0 158.75 158.75"
   version="1.1"
   id="svg889"
   inkscape:version="1.1.2 (0a00cf5339, 2022-02-04)"
   sodipodi:docname="bluesky2-icon.svg"
   xmlns:inkscape="http://www.inkscape.org/namespaces/inkscape"
   xmlns:sodipodi="http://sodipodi.sourceforge.net/DTD/sodipodi-0.dtd"
   xmlns="http://www.w3.org/2000/svg"
   xmlns:svg="http://www.w3.org/2000/svg">
  <sodipodi:namedview
     id="namedview891"
     pagecolor="#ffffff"
     bordercolor="#666666"
     borderopacity="1.0"
     inkscape:pageshadow="2"
     inkscape:pageopacity="0.0"
     inkscape:pagecheckerboard="0"
     inkscape:document-units="px"
     showgrid="false"
     units="px"
     inkscape:zoom="0.64052329"
     inkscape:cx="93.673409"
     inkscape:cy="561.25984"
     inkscape:window-width="1920"
     inkscape:window-height="1009"
     inkscape:window-x="0"
     inkscape:window-y="0"
     inkscape:window-maximized="1"
     inkscape:current-layer="layer1" />
  <defs
     id="defs886" />
  <g
     inkscape:label="Calque 1"
     inkscape:groupmode="layer"
     id="layer1">
    <symbol
       id="dribbble"
       fill-rule="evenodd"
       clip-rule="evenodd"
       stroke-linejoin="round"
       stroke-miterlimit="1.414"
       transform="scale(0.26458333)">
      <path
         d="M 8,16 C 3.59,16 0,12.41 0,8 0,3.59 3.59,0 8,0 c 4.41,0 8,3.59 8,8 0,4.41 -3.59,8 -8,8 z M 14.747,9.095 C 14.513,9.021 12.632,8.46 10.49,8.803 c 0.894,2.456 1.258,4.456 1.328,4.872 1.533,-1.037 2.624,-2.68 2.93,-4.58 z M 10.67,14.3 C 10.568,13.7 10.17,11.612 9.21,9.12 L 9.166,9.134 C 5.312,10.477 3.93,13.15 3.806,13.4 4.964,14.305 6.42,14.844 8,14.844 c 0.947,0 1.85,-0.194 2.67,-0.543 z M 2.923,12.58 C 3.078,12.314 4.953,9.21 8.478,8.07 8.568,8.04 8.658,8.014 8.748,7.99 8.575,7.6 8.388,7.212 8.193,6.83 4.78,7.85 1.47,7.807 1.17,7.8 L 1.167,8.008 c 0,1.755 0.665,3.358 1.756,4.57 z M 1.31,6.61 C 1.617,6.615 4.432,6.627 7.628,5.778 6.496,3.766 5.275,2.073 5.095,1.826 3.183,2.728 1.755,4.49 1.311,6.611 Z M 6.4,1.368 c 0.188,0.253 1.43,1.943 2.548,4 C 11.378,4.458 12.408,3.075 12.53,2.9 11.323,1.827 9.736,1.176 8,1.176 7.45,1.176 6.913,1.242 6.4,1.366 Z M 13.29,3.69 C 13.145,3.884 12,5.352 9.474,6.384 c 0.16,0.325 0.31,0.656 0.453,0.99 0.05,0.117 0.1,0.235 0.147,0.352 2.274,-0.286 4.533,0.172 4.758,0.22 -0.015,-1.613 -0.59,-3.094 -1.543,-4.257 z"
         id="path983" />
    </symbol>
    <symbol
       id="facebook"
       fill-rule="evenodd"
       clip-rule="evenodd"
       stroke-linejoin="round"
       stroke-miterlimit="1.414"
       transform="scale(0.26458333)">
      <path
         d="M 15.117,0 H 0.883 C 0.395,0 0,0.395 0,0.883 V 15.117 C 0,15.605 0.395,16 0.883,16 H 8.546 V 9.804 H 6.46 V 7.39 H 8.546 V 5.607 c 0,-2.066 1.262,-3.19 3.106,-3.19 0.883,0 1.642,0.064 1.863,0.094 v 2.16 h -1.28 c -1,0 -1.195,0.48 -1.195,1.18 v 1.54 h 2.39 l -0.31,2.42 H 11.04 V 16 h 4.077 C 15.605,16 16,15.605 16,15.117 V 0.883 C 16,0.395 15.605,0 15.117,0"
         fill-rule="nonzero"
         id="path986" />
    </symbol>
    <symbol
       id="flickr"
       fill-rule="evenodd"
       clip-rule="evenodd"
       stroke-linejoin="round"
       stroke-miterlimit="1.414"
       transform="scale(0.26458333)">
      <path
         d="m 0,8 c 0,2.05 1.662,3.71 3.71,3.71 C 5.76,11.71 7.423,10.05 7.423,8 7.423,5.95 5.76,4.29 3.71,4.29 1.663,4.29 0,5.95 0,8 Z m 8.577,0 c 0,2.05 1.662,3.71 3.712,3.71 C 14.33,11.71 16,10.05 16,8 16,5.95 14.338,4.29 12.29,4.29 10.24,4.29 8.577,5.95 8.577,8 Z"
         id="path989" />
    </symbol>
    <symbol
       id="github"
       fill-rule="evenodd"
       clip-rule="evenodd"
       stroke-linejoin="round"
       stroke-miterlimit="1.414"
       transform="scale(0.26458333)">
      <path
         d="M 8,0 C 3.58,0 0,3.582 0,8 c 0,3.535 2.292,6.533 5.47,7.59 0.4,0.075 0.547,-0.172 0.547,-0.385 0,-0.19 -0.007,-0.693 -0.01,-1.36 -2.226,0.483 -2.695,-1.073 -2.695,-1.073 -0.364,-0.924 -0.89,-1.17 -0.89,-1.17 -0.725,-0.496 0.056,-0.486 0.056,-0.486 0.803,0.056 1.225,0.824 1.225,0.824 0.714,1.223 1.873,0.87 2.33,0.665 0.072,-0.517 0.278,-0.87 0.507,-1.07 -1.777,-0.2 -3.644,-0.888 -3.644,-3.953 0,-0.873 0.31,-1.587 0.823,-2.147 -0.09,-0.202 -0.36,-1.015 0.07,-2.117 0,0 0.67,-0.215 2.2,0.82 0.64,-0.178 1.32,-0.266 2,-0.27 0.68,0.004 1.36,0.092 2,0.27 1.52,-1.035 2.19,-0.82 2.19,-0.82 0.43,1.102 0.16,1.915 0.08,2.117 0.51,0.56 0.82,1.274 0.82,2.147 0,3.073 -1.87,3.75 -3.65,3.947 0.28,0.24 0.54,0.73 0.54,1.48 0,1.07 -0.01,1.93 -0.01,2.19 0,0.21 0.14,0.46 0.55,0.38 C 13.71,14.53 16,11.53 16,8 16,3.582 12.418,0 8,0"
         id="path992" />
    </symbol>
    <symbol
       id="googleplus"
       fill-rule="evenodd"
       clip-rule="evenodd"
       stroke-linejoin="round"
       stroke-miterlimit="1.414"
       transform="scale(0.26458333)">
      <path
         d="M 5.09,7.273 V 9.018 H 7.98 C 7.864,9.768 7.107,11.215 5.093,11.215 3.356,11.215 1.938,9.775 1.938,8 c 0,-1.775 1.415,-3.215 3.152,-3.215 0.99,0 1.652,0.422 2.03,0.786 L 8.502,4.241 C 7.615,3.411 6.465,2.911 5.092,2.911 2.275,2.91 0,5.19 0,8 c 0,2.81 2.276,5.09 5.09,5.09 2.94,0 4.888,-2.065 4.888,-4.974 0,-0.334 -0.036,-0.59 -0.08,-0.843 z m 10.91,0 H 14.545 V 5.818 H 13.09 v 1.455 h -1.454 v 1.454 h 1.455 v 1.455 h 1.46 V 8.727 H 16"
         id="path995" />
    </symbol>
    <symbol
       id="instagram"
       fill-rule="evenodd"
       clip-rule="evenodd"
       stroke-linejoin="round"
       stroke-miterlimit="1.414"
       transform="scale(0.26458333)">
      <path
         d="M 8,0 C 5.827,0 5.555,0.01 4.702,0.048 3.85,0.088 3.27,0.222 2.76,0.42 2.234,0.624 1.787,0.898 1.343,1.343 0.898,1.787 0.623,2.233 0.42,2.76 0.222,3.27 0.087,3.85 0.048,4.702 0.008,5.555 0,5.827 0,8 c 0,2.173 0.01,2.445 0.048,3.298 0.04,0.852 0.174,1.433 0.372,1.942 0.204,0.526 0.478,0.973 0.923,1.417 0.444,0.445 0.89,0.72 1.417,0.923 0.51,0.198 1.09,0.333 1.942,0.372 C 5.555,15.992 5.827,16 8,16 c 2.173,0 2.445,-0.01 3.298,-0.048 0.852,-0.04 1.433,-0.174 1.942,-0.372 0.526,-0.204 0.973,-0.478 1.417,-0.923 0.445,-0.444 0.72,-0.89 0.923,-1.417 0.198,-0.51 0.333,-1.09 0.372,-1.942 C 15.992,10.445 16,10.173 16,8 16,5.827 15.99,5.555 15.952,4.702 15.912,3.85 15.778,3.269 15.58,2.76 15.376,2.234 15.102,1.787 14.657,1.343 14.213,0.898 13.767,0.623 13.24,0.42 12.73,0.222 12.15,0.087 11.298,0.048 10.445,0.008 10.173,0 8,0 Z m 0,1.44 c 2.136,0 2.39,0.01 3.233,0.048 0.78,0.036 1.203,0.166 1.485,0.276 0.374,0.145 0.64,0.318 0.92,0.598 0.28,0.28 0.453,0.546 0.598,0.92 0.11,0.282 0.24,0.705 0.276,1.485 0.038,0.844 0.047,1.097 0.047,3.233 0,2.136 -0.01,2.39 -0.05,3.233 -0.04,0.78 -0.17,1.203 -0.28,1.485 -0.15,0.374 -0.32,0.64 -0.6,0.92 -0.28,0.28 -0.55,0.453 -0.92,0.598 -0.28,0.11 -0.71,0.24 -1.49,0.276 -0.85,0.038 -1.1,0.047 -3.24,0.047 -2.14,0 -2.39,-0.01 -3.24,-0.05 -0.78,-0.04 -1.21,-0.17 -1.49,-0.28 -0.38,-0.15 -0.64,-0.32 -0.92,-0.6 -0.28,-0.28 -0.46,-0.55 -0.6,-0.92 -0.11,-0.28 -0.24,-0.71 -0.28,-1.49 -0.03,-0.84 -0.04,-1.1 -0.04,-3.23 0,-2.13 0.01,-2.39 0.04,-3.24 0.04,-0.78 0.17,-1.21 0.28,-1.49 0.14,-0.38 0.32,-0.64 0.6,-0.92 0.28,-0.28 0.54,-0.46 0.92,-0.6 0.28,-0.11 0.7,-0.24 1.48,-0.28 0.85,-0.03 1.1,-0.04 3.24,-0.04 z m 0,2.452 c -2.27,0 -4.108,1.84 -4.108,4.108 0,2.27 1.84,4.108 4.108,4.108 2.27,0 4.108,-1.84 4.108,-4.108 0,-2.27 -1.84,-4.108 -4.108,-4.108 z m 0,6.775 C 6.527,10.667 5.333,9.473 5.333,8 5.333,6.527 6.527,5.333 8,5.333 c 1.473,0 2.667,1.194 2.667,2.667 0,1.473 -1.194,2.667 -2.667,2.667 z M 13.23,3.73 c 0,0.53 -0.43,0.96 -0.96,0.96 -0.53,0 -0.96,-0.43 -0.96,-0.96 0,-0.53 0.43,-0.96 0.96,-0.96 0.53,0 0.96,0.43 0.96,0.96 z"
         id="path998" />
    </symbol>
    <symbol
       id="linkedin"
       fill-rule="evenodd"
       clip-rule="evenodd"
       stroke-linejoin="round"
       stroke-miterlimit="1.414"
       transform="scale(0.26458333)">
      <path
         d="m 13.632,13.635 h -2.37 V 9.922 c 0,-0.886 -0.018,-2.025 -1.234,-2.025 -1.235,0 -1.424,0.964 -1.424,1.96 v 3.778 H 6.234 V 6 H 8.51 v 1.04 h 0.03 c 0.318,-0.6 1.092,-1.233 2.247,-1.233 2.4,0 2.845,1.58 2.845,3.637 v 4.188 z M 3.558,4.955 c -0.762,0 -1.376,-0.617 -1.376,-1.377 0,-0.758 0.614,-1.375 1.376,-1.375 0.76,0 1.376,0.617 1.376,1.375 0,0.76 -0.617,1.377 -1.376,1.377 z m 1.188,8.68 H 2.37 V 6 H 4.746 Z M 14.816,0 H 1.18 C 0.528,0 0,0.516 0,1.153 V 14.847 C 0,15.484 0.528,16 1.18,16 H 14.815 C 15.467,16 16,15.484 16,14.847 V 1.153 C 16,0.516 15.467,0 14.815,0 Z"
         fill-rule="nonzero"
         id="path1001" />
    </symbol>
    <symbol
       id="pinterest"
       fill-rule="evenodd"
       clip-rule="evenodd"
       stroke-linejoin="round"
       stroke-miterlimit="1.414"
       transform="scale(0.26458333)">
      <path
         d="M 8,0 C 3.582,0 0,3.582 0,8 0,11.39 2.108,14.285 5.084,15.45 5.014,14.817 4.951,13.846 5.112,13.155 5.258,12.53 6.05,9.178 6.05,9.178 c 0,0 -0.24,-0.48 -0.24,-1.188 0,-1.11 0.646,-1.943 1.448,-1.943 0.683,0 1.012,0.513 1.012,1.127 0,0.687 -0.436,1.713 -0.662,2.664 -0.19,0.797 0.4,1.445 1.185,1.445 1.42,0 2.514,-1.498 2.514,-3.662 0,-1.91 -1.376,-3.25 -3.342,-3.25 -2.276,0 -3.61,1.71 -3.61,3.47 0,0.69 0.263,1.43 0.593,1.83 0.066,0.08 0.075,0.15 0.057,0.23 -0.06,0.25 -0.196,0.8 -0.223,0.91 -0.035,0.15 -0.115,0.18 -0.268,0.11 C 3.516,10.46 2.89,9 2.89,7.82 2.89,5.3 4.724,2.98 8.177,2.98 c 2.774,0 4.932,1.98 4.932,4.62 0,2.76 -1.74,4.98 -4.16,4.98 -0.81,0 -1.57,-0.42 -1.84,-0.92 l -0.5,1.9 c -0.18,0.698 -0.67,1.57 -1,2.1 0.75,0.23 1.54,0.357 2.37,0.357 4.41,0 8,-3.58 8,-8 0,-4.42 -3.59,-8 -8,-8 z"
         fill-rule="nonzero"
         id="path1004" />
    </symbol>
    <symbol
       id="rss"
       fill-rule="evenodd"
       clip-rule="evenodd"
       stroke-linejoin="round"
       stroke-miterlimit="1.414"
       transform="scale(0.26458333)">
      <path
         d="M 12.8,16 C 12.8,8.978 7.022,3.2 0,3.2 V 0 C 8.777,0 16,7.223 16,16 Z M 2.194,11.61 c 1.21,0 2.195,0.985 2.195,2.196 0,1.21 -0.99,2.194 -2.2,2.194 C 0.98,16 0,15.017 0,13.806 0,12.596 0.983,11.611 2.194,11.611 Z M 10.606,16 H 7.496 C 7.496,11.887 4.113,8.503 0,8.503 v -3.11 c 5.818,0 10.606,4.79 10.606,10.607 z"
         id="path1007" />
    </symbol>
    <symbol
       id="stackoverflow"
       class="svg-icon"
       fill-rule="evenodd"
       clip-rule="evenodd"
       stroke-linejoin="round"
       stroke-miterlimit="1.414"
       transform="scale(0.26458333)">
      <path
         d="m 12.658,14.577 v -4.27 h 1.423 V 16 H 1.23 v -5.693 h 1.42 v 4.27 H 12.656 Z M 4.075,13.154 h 7.16 V 11.73 h -7.16 z m 0.173,-3.235 6.987,1.46 0.3,-1.38 L 4.55,8.54 4.248,9.92 Z m 0.906,-3.37 6.47,3.02 0.602,-1.3 -6.47,-3.02 -0.602,1.29 z m 1.81,-3.19 5.478,4.57 0.906,-1.08 L 7.87,2.28 6.97,3.358 Z M 10.502,0 9.338,0.863 13.608,6.598 14.772,5.736 10.5,0 Z"
         id="path1010" />
    </symbol>
    <symbol
       id="twitter"
       fill-rule="evenodd"
       clip-rule="evenodd"
       stroke-linejoin="round"
       stroke-miterlimit="1.414"
       transform="scale(0.26458333)">
      <path
         d="m 16,3.038 c -0.59,0.26 -1.22,0.437 -1.885,0.517 0.677,-0.407 1.198,-1.05 1.443,-1.816 -0.634,0.37 -1.337,0.64 -2.085,0.79 -0.598,-0.64 -1.45,-1.04 -2.396,-1.04 -1.812,0 -3.282,1.47 -3.282,3.28 0,0.26 0.03,0.51 0.085,0.75 C 5.152,5.389 2.733,4.079 1.114,2.099 0.83,2.58 0.67,3.14 0.67,3.75 0.67,4.89 1.25,5.893 2.13,6.482 1.592,6.465 1.085,6.317 0.643,6.072 v 0.04 c 0,1.59 1.13,2.918 2.633,3.22 C 3,9.406 2.71,9.446 2.411,9.446 c -0.21,0 -0.41,-0.02 -0.61,-0.058 0.42,1.304 1.63,2.253 3.07,2.28 -1.12,0.88 -2.54,1.404 -4.07,1.404 -0.26,0 -0.52,-0.015 -0.78,-0.045 1.46,0.93 3.18,1.474 5.04,1.474 6.04,0 9.34,-5 9.34,-9.33 0,-0.14 0,-0.28 -0.01,-0.42 0.64,-0.46 1.2,-1.04 1.64,-1.7 z"
         fill-rule="nonzero"
         id="path1013" />
    </symbol>
    <symbol
       id="youtube"
       fill-rule="evenodd"
       clip-rule="evenodd"
       stroke-linejoin="round"
       stroke-miterlimit="1.414"
       transform="scale(0.26458333)">
      <path
         d="m 0,7.345 c 0,-1.294 0.16,-2.59 0.16,-2.59 0,0 0.156,-1.1 0.636,-1.587 C 1.404,2.531 2.204,2.551 2.56,2.484 3.84,2.36 8,2.324 8,2.324 c 0,0 3.362,0.004 5.6,0.166 0.314,0.038 0.996,0.04 1.604,0.678 0.48,0.486 0.636,1.588 0.636,1.588 0,0 0.16,1.294 0.16,2.59 v 1.258 c 0,1.296 -0.16,2.59 -0.16,2.59 0,0 -0.156,1.102 -0.636,1.588 -0.608,0.638 -1.29,0.64 -1.604,0.678 -2.238,0.162 -5.6,0.166 -5.6,0.166 0,0 -4.16,-0.037 -5.44,-0.16 C 2.204,13.399 1.404,13.419 0.796,12.782 0.316,12.295 0.16,11.195 0.16,11.195 0.16,11.195 0,9.9 0,8.605 Z m 6.348,2.73 V 5.58 l 4.323,2.255 -4.32,2.24 z"
         id="path1016" />
    </symbol>
    <symbol
       id="mastodon"
       fill-rule="evenodd"
       clip-rule="evenodd"
       stroke-linejoin="round"
       stroke-miterlimit="1.414"
       transform="scale(0.26458333)">
      <path
         transform="scale(0.07)"
         d="m 211.80734,139.0875 c -3.18125,16.36625 -28.4925,34.2775 -57.5625,37.74875 -15.15875,1.80875 -30.08375,3.47125 -45.99875,2.74125 -26.0275,-1.1925 -46.565,-6.2125 -46.565,-6.2125 0,2.53375 0.15625,4.94625 0.46875,7.2025 3.38375,25.68625 25.47,27.225 46.39125,27.9425 21.11625,0.7225 39.91875,-5.20625 39.91875,-5.20625 l 0.8675,19.09 c 0,0 -14.77,7.93125 -41.08125,9.39 -14.50875,0.7975 -32.52375,-0.365 -53.50625,-5.91875 C 9.23234,213.82 1.40609,165.31125 0.20859,116.09125 -0.15641,101.4775 0.06859,87.6975 0.06859,76.1725 0.06859,25.8425 33.04484,11.09 33.04484,11.09 49.67234,3.45375 78.20359,0.2425 107.86484,0 h 0.72875 c 29.66125,0.2425 58.21125,3.45375 74.8375,11.09 0,0 32.975,14.7525 32.975,65.0825 0,0 0.41375,37.13375 -4.59875,62.915"
         id="path1019" />
      <path
         transform="scale(0.07)"
         fill="#ffffff"
         d="m 177.50984,80.077 v 60.94125 h -24.14375 v -59.15 c 0,-12.46875 -5.24625,-18.7975 -15.74,-18.7975 -11.6025,0 -17.4175,7.5075 -17.4175,22.3525 V 117.7995 H 96.20734 V 85.42325 c 0,-14.845 -5.81625,-22.3525 -17.41875,-22.3525 -10.49375,0 -15.74,6.32875 -15.74,18.7975 v 59.15 H 38.90484 V 80.077 c 0,-12.455 3.17125,-22.3525 9.54125,-29.675 6.56875,-7.3225 15.17125,-11.07625 25.85,-11.07625 12.355,0 21.71125,4.74875 27.8975,14.2475 l 6.01375,10.08125 6.015,-10.08125 c 6.185,-9.49875 15.54125,-14.2475 27.8975,-14.2475 10.6775,0 19.28,3.75375 25.85,11.07625 6.36875,7.3225 9.54,17.22 9.54,29.675"
         id="path1021" />
    </symbol>
    <path
       d="M 36.061069,17.309495 C 53.654802,30.51776 72.578861,57.29862 79.526818,71.67079 c 6.94849,-14.37111 25.871492,-41.1533 43.465752,-54.361295 12.69471,-9.530556 33.26342,-16.90475801 33.26342,6.560344 0,4.686301 -2.68685,39.367351 -4.26271,44.997691 -5.47766,19.57493 -25.4381,24.56762 -43.19322,21.54581 31.03562,5.28214 38.93079,22.77851 21.88024,40.27487 -32.382352,33.22903 -46.542852,-8.33728 -50.172932,-18.98808 -0.66517,-1.95255 -0.97642,-2.86597 -0.981,-2.08926 -0.005,-0.77674 -0.31583,0.13671 -0.98099,2.08926 -3.6285,10.6508 -17.788736,52.21816 -50.172942,18.98808 C 11.321628,113.19185 19.21653,95.69442 50.252684,90.41334 32.497026,93.43515 12.53633,88.44243 7.0594553,68.86753 5.4835443,63.23666 2.7967533,28.55561 2.7967533,23.869839 c 0,-23.46510201 20.5692367,-16.0909 33.2634157,-6.560344 z"
       fill="#1185fe"
       id="path824"
       style="stroke-width:0.264583" />
  </g>
</svg>
