<?xml version="1.0" encoding="UTF-8" standalone="no"?>
<!-- Created with Inkscape (http://www.inkscape.org/) -->

<svg
   width="153.45923mm"
   height="135.11758mm"
   viewBox="0 0 153.45923 135.11758"
   version="1.1"
   id="svg5"
   inkscape:version="1.1.2 (0a00cf5339, 2022-02-04)"
   sodipodi:docname="bluesky-icon.svg"
   xmlns:inkscape="http://www.inkscape.org/namespaces/inkscape"
   xmlns:sodipodi="http://sodipodi.sourceforge.net/DTD/sodipodi-0.dtd"
   xmlns="http://www.w3.org/2000/svg"
   xmlns:svg="http://www.w3.org/2000/svg">
  <sodipodi:namedview
     id="namedview7"
     pagecolor="#ffffff"
     bordercolor="#666666"
     borderopacity="1.0"
     inkscape:pageshadow="2"
     inkscape:pageopacity="0.0"
     inkscape:pagecheckerboard="0"
     inkscape:document-units="mm"
     showgrid="false"
     inkscape:zoom="0.64052329"
     inkscape:cx="290.38757"
     inkscape:cy="255.26004"
     inkscape:window-width="1920"
     inkscape:window-height="1009"
     inkscape:window-x="0"
     inkscape:window-y="0"
     inkscape:window-maximized="1"
     inkscape:current-layer="layer1" />
  <defs
     id="defs2" />
  <g
     inkscape:label="Calque 1"
     inkscape:groupmode="layer"
     id="layer1"
     transform="translate(-28.191105,-80.94121)">
    <path
       d="m 61.455421,90.036285 c 17.593733,13.208265 36.517792,39.989125 43.465749,54.361295 6.94849,-14.37111 25.87149,-41.1533 43.46575,-54.361295 12.69471,-9.530556 33.26342,-16.904758 33.26342,6.560344 0,4.686301 -2.68685,39.367351 -4.26271,44.997691 -5.47766,19.57493 -25.4381,24.56762 -43.19322,21.54581 31.03562,5.28214 38.93079,22.77851 21.88024,40.27487 -32.38235,33.22903 -46.54285,-8.33728 -50.17293,-18.98808 -0.66517,-1.95255 -0.97642,-2.86597 -0.981,-2.08926 -0.005,-0.77674 -0.31583,0.13671 -0.98099,2.08926 -3.6285,10.6508 -17.788736,52.21816 -50.172942,18.98808 -17.050808,-17.49636 -9.155906,-34.99379 21.880248,-40.27487 -17.755658,3.02181 -37.716354,-1.97091 -43.193229,-21.54581 -1.575911,-5.63087 -4.262702,-40.31192 -4.262702,-44.997691 0,-23.465102 20.569237,-16.0909 33.263416,-6.560344 z"
       fill="#1185fe"
       id="path824"
       style="stroke-width:0.264583" />
  </g>
</svg>
